<mxfile host="app.diagrams.net" agent="Mozilla/5.0 (X11; Linux x86_64) AppleWebKit/537.36 (KHTML, like Gecko) Chrome/132.0.0.0 Safari/537.36" version="26.1.0">
  <diagram name="PÃ¡gina-1" id="Mjd0Yv2GLn9IVyd_ej-k">
    <mxGraphModel dx="2603" dy="788" grid="1" gridSize="10" guides="1" tooltips="1" connect="1" arrows="1" fold="1" page="1" pageScale="1" pageWidth="1169" pageHeight="827" math="0" shadow="0">
      <root>
        <mxCell id="0" />
        <mxCell id="1" parent="0" />
        <mxCell id="H8j8tGWWKGtM1E1vWjiA-4" value="" style="whiteSpace=wrap;html=1;" vertex="1" parent="1">
          <mxGeometry x="-1169" width="1169" height="820" as="geometry" />
        </mxCell>
        <mxCell id="ioKtioJMdL_eWFFIKE_o-6" value="" style="whiteSpace=wrap;html=1;" parent="1" vertex="1">
          <mxGeometry x="-1130" y="40" width="760" height="740" as="geometry" />
        </mxCell>
        <mxCell id="ioKtioJMdL_eWFFIKE_o-8" value="" style="whiteSpace=wrap;html=1;flipV=1;flipH=1;" parent="1" vertex="1">
          <mxGeometry x="-350" y="40" width="310" height="740" as="geometry" />
        </mxCell>
        <mxCell id="dODYw2VemyABCpYlCbUW-65" value="LAKE HOUSE&lt;div&gt;OU&amp;nbsp;&lt;div&gt;DELTA LAKE&amp;nbsp;&lt;/div&gt;&lt;/div&gt;" style="text;html=1;align=center;verticalAlign=middle;resizable=0;points=[];autosize=1;strokeColor=default;fillColor=none;rounded=1;" parent="1" vertex="1">
          <mxGeometry x="-240" y="340" width="100" height="60" as="geometry" />
        </mxCell>
        <mxCell id="dODYw2VemyABCpYlCbUW-66" style="edgeStyle=orthogonalEdgeStyle;rounded=0;orthogonalLoop=1;jettySize=auto;html=1;entryX=0;entryY=0.5;entryDx=0;entryDy=0;entryPerimeter=0;" parent="1" source="H8j8tGWWKGtM1E1vWjiA-1" target="dODYw2VemyABCpYlCbUW-65" edge="1">
          <mxGeometry relative="1" as="geometry" />
        </mxCell>
        <mxCell id="dODYw2VemyABCpYlCbUW-77" value="&lt;b&gt;&lt;font style=&quot;font-size: 24px;&quot;&gt;FASE 2&lt;/font&gt;&lt;/b&gt;" style="text;html=1;align=center;verticalAlign=middle;resizable=0;points=[];autosize=1;strokeColor=none;fillColor=none;rounded=1;container=0;" parent="1" vertex="1">
          <mxGeometry x="-245" y="87" width="110" height="40" as="geometry" />
        </mxCell>
        <mxCell id="dODYw2VemyABCpYlCbUW-78" value="DADOS CONSUMIVEIS" style="text;html=1;align=center;verticalAlign=middle;resizable=0;points=[];autosize=1;strokeColor=none;fillColor=none;container=0;" parent="1" vertex="1">
          <mxGeometry x="-265" y="117" width="150" height="30" as="geometry" />
        </mxCell>
        <mxCell id="dODYw2VemyABCpYlCbUW-80" value="BRONZE" style="text;html=1;align=center;verticalAlign=middle;resizable=0;points=[];autosize=1;strokeColor=none;fillColor=none;" parent="1" vertex="1">
          <mxGeometry x="-225" y="400" width="70" height="30" as="geometry" />
        </mxCell>
        <mxCell id="dODYw2VemyABCpYlCbUW-81" value="&lt;font style=&quot;color: rgb(0, 153, 0);&quot;&gt;SELECT * FROM&amp;nbsp; TABELA&lt;/font&gt;" style="text;html=1;align=center;verticalAlign=middle;resizable=0;points=[];autosize=1;strokeColor=none;fillColor=none;" parent="1" vertex="1">
          <mxGeometry x="-275" y="440" width="170" height="30" as="geometry" />
        </mxCell>
        <mxCell id="dODYw2VemyABCpYlCbUW-82" value="BRONZE.SISTEMA_PONTO" style="text;html=1;align=center;verticalAlign=middle;resizable=0;points=[];autosize=1;strokeColor=none;fillColor=none;" parent="1" vertex="1">
          <mxGeometry x="-280" y="470" width="180" height="30" as="geometry" />
        </mxCell>
        <mxCell id="dODYw2VemyABCpYlCbUW-83" value="BRONZE.SISTEMA_VENDAS" style="text;html=1;align=center;verticalAlign=middle;resizable=0;points=[];autosize=1;strokeColor=none;fillColor=none;" parent="1" vertex="1">
          <mxGeometry x="-285" y="500" width="190" height="30" as="geometry" />
        </mxCell>
        <mxCell id="dODYw2VemyABCpYlCbUW-44" value="SISTEMA DE PONTOS" style="rounded=1;whiteSpace=wrap;html=1;shadow=0;" parent="1" vertex="1">
          <mxGeometry x="-1100" y="300" width="120" height="110" as="geometry" />
        </mxCell>
        <mxCell id="dODYw2VemyABCpYlCbUW-45" value="DB" style="shape=cylinder3;whiteSpace=wrap;html=1;boundedLbl=1;backgroundOutline=1;size=15;shadow=0;" parent="1" vertex="1">
          <mxGeometry x="-1020" y="370" width="60" height="70" as="geometry" />
        </mxCell>
        <mxCell id="dODYw2VemyABCpYlCbUW-46" value="" style="endArrow=classic;html=1;rounded=0;entryX=0;entryY=0.5;entryDx=0;entryDy=0;exitX=1.008;exitY=0.627;exitDx=0;exitDy=0;exitPerimeter=0;shadow=0;" parent="1" source="dODYw2VemyABCpYlCbUW-44" target="dODYw2VemyABCpYlCbUW-47" edge="1">
          <mxGeometry width="50" height="50" relative="1" as="geometry">
            <mxPoint x="-926" y="370" as="sourcePoint" />
            <mxPoint x="-826" y="370" as="targetPoint" />
          </mxGeometry>
        </mxCell>
        <mxCell id="dODYw2VemyABCpYlCbUW-47" value="DATA LAKE" style="shape=trapezoid;perimeter=trapezoidPerimeter;whiteSpace=wrap;html=1;fixedSize=1;rounded=0;shadow=0;" parent="1" vertex="1">
          <mxGeometry x="-570" y="340" width="120" height="60" as="geometry" />
        </mxCell>
        <mxCell id="dODYw2VemyABCpYlCbUW-48" value="DMS" style="rhombus;whiteSpace=wrap;html=1;shadow=0;" parent="1" vertex="1">
          <mxGeometry x="-826" y="330" width="80" height="80" as="geometry" />
        </mxCell>
        <mxCell id="dODYw2VemyABCpYlCbUW-49" value="" style="group;strokeColor=default;rounded=1;shadow=0;" parent="1" vertex="1" connectable="0">
          <mxGeometry x="-841" y="470" width="120" height="135" as="geometry" />
        </mxCell>
        <mxCell id="dODYw2VemyABCpYlCbUW-50" value="&amp;nbsp;KAFKA&amp;nbsp;&lt;div&gt;DATA FACTORY&lt;/div&gt;&lt;div&gt;DEBIZIUM&lt;/div&gt;&lt;div&gt;BATCH&lt;/div&gt;&lt;div&gt;FIVETRAN&lt;/div&gt;&lt;div&gt;AIRBYTE&lt;/div&gt;&lt;div&gt;SCRIPT (PYTHON)&lt;/div&gt;" style="text;html=1;align=center;verticalAlign=middle;resizable=0;points=[];autosize=1;strokeColor=none;fillColor=none;shadow=0;" parent="dODYw2VemyABCpYlCbUW-49" vertex="1">
          <mxGeometry x="-10" y="25" width="130" height="110" as="geometry" />
        </mxCell>
        <mxCell id="dODYw2VemyABCpYlCbUW-51" style="edgeStyle=orthogonalEdgeStyle;rounded=0;orthogonalLoop=1;jettySize=auto;html=1;shadow=0;" parent="dODYw2VemyABCpYlCbUW-49" source="dODYw2VemyABCpYlCbUW-52" edge="1">
          <mxGeometry relative="1" as="geometry">
            <mxPoint x="55" y="-40" as="targetPoint" />
          </mxGeometry>
        </mxCell>
        <mxCell id="dODYw2VemyABCpYlCbUW-52" value="&lt;b&gt;FERRAMENTAS&lt;/b&gt;" style="text;html=1;align=center;verticalAlign=middle;resizable=0;points=[];autosize=1;strokeColor=none;fillColor=none;shadow=0;" parent="dODYw2VemyABCpYlCbUW-49" vertex="1">
          <mxGeometry width="110" height="30" as="geometry" />
        </mxCell>
        <mxCell id="dODYw2VemyABCpYlCbUW-53" style="edgeStyle=orthogonalEdgeStyle;rounded=0;orthogonalLoop=1;jettySize=auto;html=1;shadow=0;" parent="1" source="dODYw2VemyABCpYlCbUW-54" edge="1">
          <mxGeometry relative="1" as="geometry">
            <mxPoint x="-786" y="320" as="targetPoint" />
          </mxGeometry>
        </mxCell>
        <mxCell id="dODYw2VemyABCpYlCbUW-54" value="CHANGE DATA CAPTURE (CDC)" style="text;html=1;align=center;verticalAlign=middle;resizable=0;points=[];autosize=1;strokeColor=default;fillColor=none;fontStyle=1;rounded=1;shadow=0;" parent="1" vertex="1">
          <mxGeometry x="-891" y="250" width="210" height="30" as="geometry" />
        </mxCell>
        <mxCell id="dODYw2VemyABCpYlCbUW-55" style="edgeStyle=orthogonalEdgeStyle;rounded=0;orthogonalLoop=1;jettySize=auto;html=1;shadow=0;" parent="1" source="dODYw2VemyABCpYlCbUW-56" edge="1">
          <mxGeometry relative="1" as="geometry">
            <mxPoint x="-786" y="230" as="targetPoint" />
          </mxGeometry>
        </mxCell>
        <mxCell id="dODYw2VemyABCpYlCbUW-56" value="ATIVAR BINLOG PARA FERRAMENTAS DMS" style="text;html=1;align=center;verticalAlign=middle;resizable=0;points=[];autosize=1;strokeColor=default;fillColor=none;fontStyle=1;rounded=1;shadow=0;" parent="1" vertex="1">
          <mxGeometry x="-921" y="180" width="270" height="30" as="geometry" />
        </mxCell>
        <mxCell id="dODYw2VemyABCpYlCbUW-57" value="RAW" style="text;html=1;align=center;verticalAlign=middle;resizable=0;points=[];autosize=1;strokeColor=none;fillColor=none;shadow=0;" parent="1" vertex="1">
          <mxGeometry x="-535" y="400" width="50" height="30" as="geometry" />
        </mxCell>
        <mxCell id="dODYw2VemyABCpYlCbUW-58" value="" style="group;shadow=0;" parent="1" vertex="1" connectable="0">
          <mxGeometry x="-855" y="87" width="140" height="60" as="geometry" />
        </mxCell>
        <mxCell id="dODYw2VemyABCpYlCbUW-59" value="&lt;b&gt;&lt;font style=&quot;font-size: 24px;&quot;&gt;FASE 1&lt;/font&gt;&lt;/b&gt;" style="text;html=1;align=center;verticalAlign=middle;resizable=0;points=[];autosize=1;strokeColor=none;fillColor=none;rounded=1;shadow=0;" parent="dODYw2VemyABCpYlCbUW-58" vertex="1">
          <mxGeometry x="10" width="110" height="40" as="geometry" />
        </mxCell>
        <mxCell id="dODYw2VemyABCpYlCbUW-60" value="COPIA DOS DADOS&amp;nbsp;" style="text;html=1;align=center;verticalAlign=middle;resizable=0;points=[];autosize=1;strokeColor=none;fillColor=none;shadow=0;" parent="dODYw2VemyABCpYlCbUW-58" vertex="1">
          <mxGeometry y="30" width="140" height="30" as="geometry" />
        </mxCell>
        <mxCell id="dODYw2VemyABCpYlCbUW-61" style="edgeStyle=orthogonalEdgeStyle;rounded=0;orthogonalLoop=1;jettySize=auto;html=1;shadow=0;" parent="1" source="dODYw2VemyABCpYlCbUW-62" edge="1">
          <mxGeometry relative="1" as="geometry">
            <mxPoint x="-510" y="230" as="targetPoint" />
          </mxGeometry>
        </mxCell>
        <mxCell id="dODYw2VemyABCpYlCbUW-62" value="&lt;b&gt;OBJECT STORAGE&lt;/b&gt;" style="text;html=1;align=center;verticalAlign=middle;resizable=0;points=[];autosize=1;strokeColor=default;fillColor=none;rounded=1;shadow=0;" parent="1" vertex="1">
          <mxGeometry x="-575" y="180" width="130" height="30" as="geometry" />
        </mxCell>
        <mxCell id="dODYw2VemyABCpYlCbUW-63" style="edgeStyle=orthogonalEdgeStyle;rounded=0;orthogonalLoop=1;jettySize=auto;html=1;shadow=0;" parent="1" source="dODYw2VemyABCpYlCbUW-64" edge="1">
          <mxGeometry relative="1" as="geometry">
            <mxPoint x="-510" y="330" as="targetPoint" />
          </mxGeometry>
        </mxCell>
        <mxCell id="dODYw2VemyABCpYlCbUW-64" value="S3&lt;div&gt;BLOB STORAGE&lt;/div&gt;&lt;div&gt;GCS&lt;/div&gt;" style="text;html=1;align=center;verticalAlign=middle;resizable=0;points=[];autosize=1;strokeColor=default;fillColor=none;rounded=1;shadow=0;" parent="1" vertex="1">
          <mxGeometry x="-570" y="240" width="120" height="60" as="geometry" />
        </mxCell>
        <mxCell id="dODYw2VemyABCpYlCbUW-69" value="&lt;font style=&quot;color: rgb(0, 153, 0);&quot;&gt;SELECT * FROM&amp;nbsp; TABELA&lt;/font&gt;" style="text;html=1;align=center;verticalAlign=middle;resizable=0;points=[];autosize=1;strokeColor=none;fillColor=none;" parent="1" vertex="1">
          <mxGeometry x="-1120" y="581" width="170" height="30" as="geometry" />
        </mxCell>
        <mxCell id="dODYw2VemyABCpYlCbUW-70" value="SISTEMA DE VENDAS" style="rounded=1;whiteSpace=wrap;html=1;shadow=0;" parent="1" vertex="1">
          <mxGeometry x="-1100" y="622" width="120" height="110" as="geometry" />
        </mxCell>
        <mxCell id="dODYw2VemyABCpYlCbUW-71" style="edgeStyle=orthogonalEdgeStyle;rounded=0;orthogonalLoop=1;jettySize=auto;html=1;shadow=0;" parent="1" source="dODYw2VemyABCpYlCbUW-72" target="dODYw2VemyABCpYlCbUW-48" edge="1">
          <mxGeometry relative="1" as="geometry">
            <Array as="points">
              <mxPoint x="-870" y="727" />
              <mxPoint x="-870" y="402" />
            </Array>
          </mxGeometry>
        </mxCell>
        <mxCell id="dODYw2VemyABCpYlCbUW-72" value="DB" style="shape=cylinder3;whiteSpace=wrap;html=1;boundedLbl=1;backgroundOutline=1;size=15;shadow=0;" parent="1" vertex="1">
          <mxGeometry x="-1020" y="692" width="60" height="70" as="geometry" />
        </mxCell>
        <mxCell id="dODYw2VemyABCpYlCbUW-73" value="&lt;font style=&quot;color: rgb(0, 153, 0);&quot;&gt;SELECT * FROM&amp;nbsp; TABELA&lt;/font&gt;" style="text;html=1;align=center;verticalAlign=middle;resizable=0;points=[];autosize=1;strokeColor=none;fillColor=none;" parent="1" vertex="1">
          <mxGeometry x="-1120" y="255" width="170" height="30" as="geometry" />
        </mxCell>
        <mxCell id="H8j8tGWWKGtM1E1vWjiA-2" value="&lt;b&gt;&lt;font style=&quot;color: light-dark(rgb(242, 7, 7), rgb(237, 237, 237));&quot;&gt;AWS&lt;/font&gt;&lt;/b&gt;" style="text;html=1;align=center;verticalAlign=middle;whiteSpace=wrap;rounded=0;" vertex="1" parent="1">
          <mxGeometry x="-60" y="790" width="70" height="30" as="geometry" />
        </mxCell>
        <mxCell id="H8j8tGWWKGtM1E1vWjiA-3" value="&lt;b&gt;&lt;font style=&quot;color: light-dark(rgb(242, 2, 2), rgb(237, 237, 237));&quot;&gt;DATABRICKS&lt;/font&gt;&lt;/b&gt;" style="text;html=1;align=center;verticalAlign=middle;whiteSpace=wrap;rounded=0;" vertex="1" parent="1">
          <mxGeometry x="-135" y="740" width="95" height="50" as="geometry" />
        </mxCell>
        <mxCell id="H8j8tGWWKGtM1E1vWjiA-5" value="" style="edgeStyle=orthogonalEdgeStyle;rounded=0;orthogonalLoop=1;jettySize=auto;html=1;entryX=0;entryY=0.5;entryDx=0;entryDy=0;entryPerimeter=0;" edge="1" parent="1" source="dODYw2VemyABCpYlCbUW-47" target="H8j8tGWWKGtM1E1vWjiA-1">
          <mxGeometry relative="1" as="geometry">
            <mxPoint x="-460" y="370" as="sourcePoint" />
            <mxPoint x="-240" y="370" as="targetPoint" />
          </mxGeometry>
        </mxCell>
        <mxCell id="H8j8tGWWKGtM1E1vWjiA-1" value="SPARK" style="rhombus;whiteSpace=wrap;html=1;" vertex="1" parent="1">
          <mxGeometry x="-325" y="340" width="60" height="60" as="geometry" />
        </mxCell>
      </root>
    </mxGraphModel>
  </diagram>
</mxfile>
